<?xml version="1.0" encoding="UTF-8" standalone="no"?><svg xmlns="http://www.w3.org/2000/svg" xmlns:xlink="http://www.w3.org/1999/xlink" clip-rule="evenodd" stroke-miterlimit="10" viewBox="0 0 1920 1080"><desc>SVG generated by Keynote</desc><defs></defs><g transform="matrix(1.00, 0.00, -0.00, -1.00, 0.0, 1080.0)"><g><clipPath id="clip0x610000abc740"><path d="M 0.0 1080.0 L 1920.0 1080.0 L 1920.0 0.0 L 0.0 0.0 Z M 0.0 1080.0 "></path></clipPath><g clip-path="url(#clip0x610000abc740)"><image xlink:href="../../9CEB79A6-1FE0-49C0-9465-5E1E6F73F21E/assets/31B52EA7DD6094DF53931C71CD46DB84.jpeg" width="3840.00" height="2160.00" transform="matrix(0.50, 0.00, -0.00, -0.50, 0.0, 1080.0)"></image></g></g><text xml:space="preserve" font-family="Helvetica-Light,Helvetica" font-size="112.0" fill="#FEFFFF" transform="matrix(1.00, 0.00, -0.00, -1.00, 587.1, 875.8)">S</text><text xml:space="preserve" font-family="Helvetica-Light,Helvetica" font-size="112.0" fill="#FEFFFF" transform="matrix(1.00, 0.00, -0.00, -1.00, 655.6, 875.8)">i</text><text xml:space="preserve" font-family="Helvetica-Light,Helvetica" font-size="112.0" fill="#FEFFFF" transform="matrix(1.00, 0.00, -0.00, -1.00, 680.4, 875.8)">m</text><text xml:space="preserve" font-family="Helvetica-Light,Helvetica" font-size="112.0" fill="#FEFFFF" transform="matrix(1.00, 0.00, -0.00, -1.00, 773.7, 875.8)">p</text><text xml:space="preserve" font-family="Helvetica-Light,Helvetica" font-size="112.0" fill="#FEFFFF" transform="matrix(1.00, 0.00, -0.00, -1.00, 842.2, 875.8)">l</text><text xml:space="preserve" font-family="Helvetica-Light,Helvetica" font-size="112.0" fill="#FEFFFF" transform="matrix(1.00, 0.00, -0.00, -1.00, 867.0, 875.8)">e</text><text xml:space="preserve" font-family="Helvetica-Light,Helvetica" font-size="112.0" fill="#FEFFFF" transform="matrix(1.00, 0.00, -0.00, -1.00, 929.3, 875.8)">r</text><text xml:space="preserve" font-family="Helvetica-Light,Helvetica" font-size="112.0" fill="#FEFFFF" transform="matrix(1.00, 0.00, -0.00, -1.00, 966.6, 875.8)"> </text><text xml:space="preserve" font-family="Helvetica-Light,Helvetica" font-size="112.0" fill="#FEFFFF" transform="matrix(1.00, 0.00, -0.00, -1.00, 997.7, 875.8)">S</text><text xml:space="preserve" font-family="Helvetica-Light,Helvetica" font-size="112.0" fill="#FEFFFF" transform="matrix(1.00, 0.00, -0.00, -1.00, 1066.2, 875.8)">y</text><text xml:space="preserve" font-family="Helvetica-Light,Helvetica" font-size="112.0" fill="#FEFFFF" transform="matrix(1.00, 0.00, -0.00, -1.00, 1122.2, 875.8)">n</text><text xml:space="preserve" font-family="Helvetica-Light,Helvetica" font-size="112.0" fill="#FEFFFF" transform="matrix(1.00, 0.00, -0.00, -1.00, 1184.4, 875.8)">t</text><text xml:space="preserve" font-family="Helvetica-Light,Helvetica" font-size="112.0" fill="#FEFFFF" transform="matrix(1.00, 0.00, -0.00, -1.00, 1215.6, 875.8)">a</text><text xml:space="preserve" font-family="Helvetica-Light,Helvetica" font-size="112.0" fill="#FEFFFF" transform="matrix(1.00, 0.00, -0.00, -1.00, 1277.9, 875.8)">x</text><g><g><clipPath id="clip0x610000abd160"><path d="M 121.5 761.5 L 1804.5 761.5 L 1804.5 127.5 L 121.5 127.5 Z M 121.5 761.5 "></path></clipPath><g clip-path="url(#clip0x610000abd160)"><g><clipPath id="clip0x610000abd2e0"><path d="M 122.5 550.5 L 1341.1 550.5 L 1341.1 760.5 L 122.5 760.5 Z M 122.5 550.5 "></path></clipPath><g clip-path="url(#clip0x610000abd2e0)"><text xml:space="preserve" font-family="Monaco,Monaco" font-size="39.0" fill="#FEFFFE" transform="matrix(1.00, 0.00, -0.00, -1.00, 172.5, 640.5)">d</text><text xml:space="preserve" font-family="Monaco,Monaco" font-size="39.0" fill="#FEFFFE" transform="matrix(1.00, 0.00, -0.00, -1.00, 195.9, 640.5)">o</text><text xml:space="preserve" font-family="Monaco,Monaco" font-size="39.0" fill="#FEFFFE" transform="matrix(1.00, 0.00, -0.00, -1.00, 219.3, 640.5)">c</text><text xml:space="preserve" font-family="Monaco,Monaco" font-size="39.0" fill="#FEFFFE" transform="matrix(1.00, 0.00, -0.00, -1.00, 242.7, 640.5)">u</text><text xml:space="preserve" font-family="Monaco,Monaco" font-size="39.0" fill="#FEFFFE" transform="matrix(1.00, 0.00, -0.00, -1.00, 266.1, 640.5)">m</text><text xml:space="preserve" font-family="Monaco,Monaco" font-size="39.0" fill="#FEFFFE" transform="matrix(1.00, 0.00, -0.00, -1.00, 289.5, 640.5)">e</text><text xml:space="preserve" font-family="Monaco,Monaco" font-size="39.0" fill="#FEFFFE" transform="matrix(1.00, 0.00, -0.00, -1.00, 312.9, 640.5)">n</text><text xml:space="preserve" font-family="Monaco,Monaco" font-size="39.0" fill="#FEFFFE" transform="matrix(1.00, 0.00, -0.00, -1.00, 336.4, 640.5)">t</text><text xml:space="preserve" font-family="Monaco,Monaco" font-size="39.0" fill="#FEFFFE" transform="matrix(1.00, 0.00, -0.00, -1.00, 359.8, 640.5)">.</text><text xml:space="preserve" font-family="Monaco,Monaco" font-size="39.0" fill="#FEFFFE" transform="matrix(1.00, 0.00, -0.00, -1.00, 383.2, 640.5)">g</text><text xml:space="preserve" font-family="Monaco,Monaco" font-size="39.0" fill="#FEFFFE" transform="matrix(1.00, 0.00, -0.00, -1.00, 406.6, 640.5)">e</text><text xml:space="preserve" font-family="Monaco,Monaco" font-size="39.0" fill="#FEFFFE" transform="matrix(1.00, 0.00, -0.00, -1.00, 430.0, 640.5)">t</text><text xml:space="preserve" font-family="Monaco,Monaco" font-size="39.0" fill="#FEFFFE" transform="matrix(1.00, 0.00, -0.00, -1.00, 453.4, 640.5)">E</text><text xml:space="preserve" font-family="Monaco,Monaco" font-size="39.0" fill="#FEFFFE" transform="matrix(1.00, 0.00, -0.00, -1.00, 476.8, 640.5)">l</text><text xml:space="preserve" font-family="Monaco,Monaco" font-size="39.0" fill="#FEFFFE" transform="matrix(1.00, 0.00, -0.00, -1.00, 500.2, 640.5)">e</text><text xml:space="preserve" font-family="Monaco,Monaco" font-size="39.0" fill="#FEFFFE" transform="matrix(1.00, 0.00, -0.00, -1.00, 523.6, 640.5)">m</text><text xml:space="preserve" font-family="Monaco,Monaco" font-size="39.0" fill="#FEFFFE" transform="matrix(1.00, 0.00, -0.00, -1.00, 547.0, 640.5)">e</text><text xml:space="preserve" font-family="Monaco,Monaco" font-size="39.0" fill="#FEFFFE" transform="matrix(1.00, 0.00, -0.00, -1.00, 570.4, 640.5)">n</text><text xml:space="preserve" font-family="Monaco,Monaco" font-size="39.0" fill="#FEFFFE" transform="matrix(1.00, 0.00, -0.00, -1.00, 593.8, 640.5)">t</text><text xml:space="preserve" font-family="Monaco,Monaco" font-size="39.0" fill="#FEFFFE" transform="matrix(1.00, 0.00, -0.00, -1.00, 617.2, 640.5)">B</text><text xml:space="preserve" font-family="Monaco,Monaco" font-size="39.0" fill="#FEFFFE" transform="matrix(1.00, 0.00, -0.00, -1.00, 640.7, 640.5)">y</text><text xml:space="preserve" font-family="Monaco,Monaco" font-size="39.0" fill="#FEFFFE" transform="matrix(1.00, 0.00, -0.00, -1.00, 664.1, 640.5)">C</text><text xml:space="preserve" font-family="Monaco,Monaco" font-size="39.0" fill="#FEFFFE" transform="matrix(1.00, 0.00, -0.00, -1.00, 687.5, 640.5)">l</text><text xml:space="preserve" font-family="Monaco,Monaco" font-size="39.0" fill="#FEFFFE" transform="matrix(1.00, 0.00, -0.00, -1.00, 710.9, 640.5)">a</text><text xml:space="preserve" font-family="Monaco,Monaco" font-size="39.0" fill="#FEFFFE" transform="matrix(1.00, 0.00, -0.00, -1.00, 734.3, 640.5)">s</text><text xml:space="preserve" font-family="Monaco,Monaco" font-size="39.0" fill="#FEFFFE" transform="matrix(1.00, 0.00, -0.00, -1.00, 757.7, 640.5)">s</text><text xml:space="preserve" font-family="Monaco,Monaco" font-size="39.0" fill="#FEFFFE" transform="matrix(1.00, 0.00, -0.00, -1.00, 781.1, 640.5)">N</text><text xml:space="preserve" font-family="Monaco,Monaco" font-size="39.0" fill="#FEFFFE" transform="matrix(1.00, 0.00, -0.00, -1.00, 804.5, 640.5)">a</text><text xml:space="preserve" font-family="Monaco,Monaco" font-size="39.0" fill="#FEFFFE" transform="matrix(1.00, 0.00, -0.00, -1.00, 827.9, 640.5)">m</text><text xml:space="preserve" font-family="Monaco,Monaco" font-size="39.0" fill="#FEFFFE" transform="matrix(1.00, 0.00, -0.00, -1.00, 851.3, 640.5)">e</text><text xml:space="preserve" font-family="Monaco,Monaco" font-size="39.0" fill="#FEFFFE" transform="matrix(1.00, 0.00, -0.00, -1.00, 874.7, 640.5)">(</text><text xml:space="preserve" font-family="Monaco,Monaco" font-size="39.0" fill="#FEFFFE" transform="matrix(1.00, 0.00, -0.00, -1.00, 898.1, 640.5)">‘</text><text xml:space="preserve" font-family="Monaco,Monaco" font-size="39.0" fill="#FEFFFE" transform="matrix(1.00, 0.00, -0.00, -1.00, 921.5, 640.5)">c</text><text xml:space="preserve" font-family="Monaco,Monaco" font-size="39.0" fill="#FEFFFE" transform="matrix(1.00, 0.00, -0.00, -1.00, 945.0, 640.5)">o</text><text xml:space="preserve" font-family="Monaco,Monaco" font-size="39.0" fill="#FEFFFE" transform="matrix(1.00, 0.00, -0.00, -1.00, 968.4, 640.5)">n</text><text xml:space="preserve" font-family="Monaco,Monaco" font-size="39.0" fill="#FEFFFE" transform="matrix(1.00, 0.00, -0.00, -1.00, 991.8, 640.5)">t</text><text xml:space="preserve" font-family="Monaco,Monaco" font-size="39.0" fill="#FEFFFE" transform="matrix(1.00, 0.00, -0.00, -1.00, 1015.2, 640.5)">a</text><text xml:space="preserve" font-family="Monaco,Monaco" font-size="39.0" fill="#FEFFFE" transform="matrix(1.00, 0.00, -0.00, -1.00, 1038.6, 640.5)">i</text><text xml:space="preserve" font-family="Monaco,Monaco" font-size="39.0" fill="#FEFFFE" transform="matrix(1.00, 0.00, -0.00, -1.00, 1062.0, 640.5)">n</text><text xml:space="preserve" font-family="Monaco,Monaco" font-size="39.0" fill="#FEFFFE" transform="matrix(1.00, 0.00, -0.00, -1.00, 1085.4, 640.5)">e</text><text xml:space="preserve" font-family="Monaco,Monaco" font-size="39.0" fill="#FEFFFE" transform="matrix(1.00, 0.00, -0.00, -1.00, 1108.8, 640.5)">r</text><text xml:space="preserve" font-family="Monaco,Monaco" font-size="39.0" fill="#FEFFFE" transform="matrix(1.00, 0.00, -0.00, -1.00, 1132.2, 640.5)">’</text><text xml:space="preserve" font-family="Monaco,Monaco" font-size="39.0" fill="#FEFFFE" transform="matrix(1.00, 0.00, -0.00, -1.00, 1155.6, 640.5)">)</text></g></g></g></g><g><clipPath id="clip0x610000abe4e0"><path d="M 121.5 761.5 L 1804.5 761.5 L 1804.5 127.5 L 121.5 127.5 Z M 121.5 761.5 "></path></clipPath><g clip-path="url(#clip0x610000abe4e0)"><g><clipPath id="clip0x610000abe660"><path d="M 1342.1 550.5 L 1803.5 550.5 L 1803.5 760.5 L 1342.1 760.5 Z M 1342.1 550.5 "></path></clipPath><g clip-path="url(#clip0x610000abe660)"><text xml:space="preserve" font-family="Monaco,Monaco" font-size="39.0" fill="#FEFFFE" transform="matrix(1.00, 0.00, -0.00, -1.00, 1392.1, 640.5)">$</text><text xml:space="preserve" font-family="Monaco,Monaco" font-size="39.0" fill="#FEFFFE" transform="matrix(1.00, 0.00, -0.00, -1.00, 1415.5, 640.5)">(</text><text xml:space="preserve" font-family="Monaco,Monaco" font-size="39.0" fill="#FEFFFE" transform="matrix(1.00, 0.00, -0.00, -1.00, 1438.9, 640.5)">‘</text><text xml:space="preserve" font-family="Monaco,Monaco" font-size="39.0" fill="#FEFFFE" transform="matrix(1.00, 0.00, -0.00, -1.00, 1462.3, 640.5)">.</text><text xml:space="preserve" font-family="Monaco,Monaco" font-size="39.0" fill="#FEFFFE" transform="matrix(1.00, 0.00, -0.00, -1.00, 1485.7, 640.5)">c</text><text xml:space="preserve" font-family="Monaco,Monaco" font-size="39.0" fill="#FEFFFE" transform="matrix(1.00, 0.00, -0.00, -1.00, 1509.1, 640.5)">o</text><text xml:space="preserve" font-family="Monaco,Monaco" font-size="39.0" fill="#FEFFFE" transform="matrix(1.00, 0.00, -0.00, -1.00, 1532.6, 640.5)">n</text><text xml:space="preserve" font-family="Monaco,Monaco" font-size="39.0" fill="#FEFFFE" transform="matrix(1.00, 0.00, -0.00, -1.00, 1556.0, 640.5)">t</text><text xml:space="preserve" font-family="Monaco,Monaco" font-size="39.0" fill="#FEFFFE" transform="matrix(1.00, 0.00, -0.00, -1.00, 1579.4, 640.5)">a</text><text xml:space="preserve" font-family="Monaco,Monaco" font-size="39.0" fill="#FEFFFE" transform="matrix(1.00, 0.00, -0.00, -1.00, 1602.8, 640.5)">i</text><text xml:space="preserve" font-family="Monaco,Monaco" font-size="39.0" fill="#FEFFFE" transform="matrix(1.00, 0.00, -0.00, -1.00, 1626.2, 640.5)">n</text><text xml:space="preserve" font-family="Monaco,Monaco" font-size="39.0" fill="#FEFFFE" transform="matrix(1.00, 0.00, -0.00, -1.00, 1649.6, 640.5)">e</text><text xml:space="preserve" font-family="Monaco,Monaco" font-size="39.0" fill="#FEFFFE" transform="matrix(1.00, 0.00, -0.00, -1.00, 1673.0, 640.5)">r</text><text xml:space="preserve" font-family="Monaco,Monaco" font-size="39.0" fill="#FEFFFE" transform="matrix(1.00, 0.00, -0.00, -1.00, 1696.4, 640.5)">’</text><text xml:space="preserve" font-family="Monaco,Monaco" font-size="39.0" fill="#FEFFFE" transform="matrix(1.00, 0.00, -0.00, -1.00, 1719.8, 640.5)">)</text></g></g></g></g><g><clipPath id="clip0x610000abede0"><path d="M 121.5 761.5 L 1804.5 761.5 L 1804.5 127.5 L 121.5 127.5 Z M 121.5 761.5 "></path></clipPath><g clip-path="url(#clip0x610000abede0)"><g><clipPath id="clip0x610000abef60"><path d="M 122.5 339.5 L 1341.1 339.5 L 1341.1 549.5 L 122.5 549.5 Z M 122.5 339.5 "></path></clipPath><g clip-path="url(#clip0x610000abef60)"><text xml:space="preserve" font-family="Monaco,Monaco" font-size="39.0" fill="#FEFFFE" transform="matrix(1.00, 0.00, -0.00, -1.00, 172.5, 429.5)">d</text><text xml:space="preserve" font-family="Monaco,Monaco" font-size="39.0" fill="#FEFFFE" transform="matrix(1.00, 0.00, -0.00, -1.00, 195.9, 429.5)">o</text><text xml:space="preserve" font-family="Monaco,Monaco" font-size="39.0" fill="#FEFFFE" transform="matrix(1.00, 0.00, -0.00, -1.00, 219.3, 429.5)">c</text><text xml:space="preserve" font-family="Monaco,Monaco" font-size="39.0" fill="#FEFFFE" transform="matrix(1.00, 0.00, -0.00, -1.00, 242.7, 429.5)">u</text><text xml:space="preserve" font-family="Monaco,Monaco" font-size="39.0" fill="#FEFFFE" transform="matrix(1.00, 0.00, -0.00, -1.00, 266.1, 429.5)">m</text><text xml:space="preserve" font-family="Monaco,Monaco" font-size="39.0" fill="#FEFFFE" transform="matrix(1.00, 0.00, -0.00, -1.00, 289.5, 429.5)">e</text><text xml:space="preserve" font-family="Monaco,Monaco" font-size="39.0" fill="#FEFFFE" transform="matrix(1.00, 0.00, -0.00, -1.00, 312.9, 429.5)">n</text><text xml:space="preserve" font-family="Monaco,Monaco" font-size="39.0" fill="#FEFFFE" transform="matrix(1.00, 0.00, -0.00, -1.00, 336.4, 429.5)">t</text><text xml:space="preserve" font-family="Monaco,Monaco" font-size="39.0" fill="#FEFFFE" transform="matrix(1.00, 0.00, -0.00, -1.00, 359.8, 429.5)">.</text><text xml:space="preserve" font-family="Monaco,Monaco" font-size="39.0" fill="#FEFFFE" transform="matrix(1.00, 0.00, -0.00, -1.00, 383.2, 429.5)">g</text><text xml:space="preserve" font-family="Monaco,Monaco" font-size="39.0" fill="#FEFFFE" transform="matrix(1.00, 0.00, -0.00, -1.00, 406.6, 429.5)">e</text><text xml:space="preserve" font-family="Monaco,Monaco" font-size="39.0" fill="#FEFFFE" transform="matrix(1.00, 0.00, -0.00, -1.00, 430.0, 429.5)">t</text><text xml:space="preserve" font-family="Monaco,Monaco" font-size="39.0" fill="#FEFFFE" transform="matrix(1.00, 0.00, -0.00, -1.00, 453.4, 429.5)">E</text><text xml:space="preserve" font-family="Monaco,Monaco" font-size="39.0" fill="#FEFFFE" transform="matrix(1.00, 0.00, -0.00, -1.00, 476.8, 429.5)">l</text><text xml:space="preserve" font-family="Monaco,Monaco" font-size="39.0" fill="#FEFFFE" transform="matrix(1.00, 0.00, -0.00, -1.00, 500.2, 429.5)">e</text><text xml:space="preserve" font-family="Monaco,Monaco" font-size="39.0" fill="#FEFFFE" transform="matrix(1.00, 0.00, -0.00, -1.00, 523.6, 429.5)">m</text><text xml:space="preserve" font-family="Monaco,Monaco" font-size="39.0" fill="#FEFFFE" transform="matrix(1.00, 0.00, -0.00, -1.00, 547.0, 429.5)">e</text><text xml:space="preserve" font-family="Monaco,Monaco" font-size="39.0" fill="#FEFFFE" transform="matrix(1.00, 0.00, -0.00, -1.00, 570.4, 429.5)">n</text><text xml:space="preserve" font-family="Monaco,Monaco" font-size="39.0" fill="#FEFFFE" transform="matrix(1.00, 0.00, -0.00, -1.00, 593.8, 429.5)">t</text><text xml:space="preserve" font-family="Monaco,Monaco" font-size="39.0" fill="#FEFFFE" transform="matrix(1.00, 0.00, -0.00, -1.00, 617.2, 429.5)">B</text><text xml:space="preserve" font-family="Monaco,Monaco" font-size="39.0" fill="#FEFFFE" transform="matrix(1.00, 0.00, -0.00, -1.00, 640.7, 429.5)">y</text><text xml:space="preserve" font-family="Monaco,Monaco" font-size="39.0" fill="#FEFFFE" transform="matrix(1.00, 0.00, -0.00, -1.00, 664.1, 429.5)">I</text><text xml:space="preserve" font-family="Monaco,Monaco" font-size="39.0" fill="#FEFFFE" transform="matrix(1.00, 0.00, -0.00, -1.00, 687.5, 429.5)">d</text><text xml:space="preserve" font-family="Monaco,Monaco" font-size="39.0" fill="#FEFFFE" transform="matrix(1.00, 0.00, -0.00, -1.00, 710.9, 429.5)">(</text><text xml:space="preserve" font-family="Monaco,Monaco" font-size="39.0" fill="#FEFFFE" transform="matrix(1.00, 0.00, -0.00, -1.00, 734.3, 429.5)">‘</text><text xml:space="preserve" font-family="Monaco,Monaco" font-size="39.0" fill="#FEFFFE" transform="matrix(1.00, 0.00, -0.00, -1.00, 757.7, 429.5)">t</text><text xml:space="preserve" font-family="Monaco,Monaco" font-size="39.0" fill="#FEFFFE" transform="matrix(1.00, 0.00, -0.00, -1.00, 781.1, 429.5)">h</text><text xml:space="preserve" font-family="Monaco,Monaco" font-size="39.0" fill="#FEFFFE" transform="matrix(1.00, 0.00, -0.00, -1.00, 804.5, 429.5)">e</text><text xml:space="preserve" font-family="Monaco,Monaco" font-size="39.0" fill="#FEFFFE" transform="matrix(1.00, 0.00, -0.00, -1.00, 827.9, 429.5)">T</text><text xml:space="preserve" font-family="Monaco,Monaco" font-size="39.0" fill="#FEFFFE" transform="matrix(1.00, 0.00, -0.00, -1.00, 851.3, 429.5)">a</text><text xml:space="preserve" font-family="Monaco,Monaco" font-size="39.0" fill="#FEFFFE" transform="matrix(1.00, 0.00, -0.00, -1.00, 874.7, 429.5)">b</text><text xml:space="preserve" font-family="Monaco,Monaco" font-size="39.0" fill="#FEFFFE" transform="matrix(1.00, 0.00, -0.00, -1.00, 898.1, 429.5)">l</text><text xml:space="preserve" font-family="Monaco,Monaco" font-size="39.0" fill="#FEFFFE" transform="matrix(1.00, 0.00, -0.00, -1.00, 921.5, 429.5)">e</text><text xml:space="preserve" font-family="Monaco,Monaco" font-size="39.0" fill="#FEFFFE" transform="matrix(1.00, 0.00, -0.00, -1.00, 945.0, 429.5)">’</text><text xml:space="preserve" font-family="Monaco,Monaco" font-size="39.0" fill="#FEFFFE" transform="matrix(1.00, 0.00, -0.00, -1.00, 968.4, 429.5)">)</text></g></g></g></g><g><clipPath id="clip0x610000abfec0"><path d="M 121.5 761.5 L 1804.5 761.5 L 1804.5 127.5 L 121.5 127.5 Z M 121.5 761.5 "></path></clipPath><g clip-path="url(#clip0x610000abfec0)"><g><clipPath id="clip0x610000ca0060"><path d="M 1342.1 339.5 L 1803.5 339.5 L 1803.5 549.5 L 1342.1 549.5 Z M 1342.1 339.5 "></path></clipPath><g clip-path="url(#clip0x610000ca0060)"><text xml:space="preserve" font-family="Monaco,Monaco" font-size="39.0" fill="#FEFFFE" transform="matrix(1.00, 0.00, -0.00, -1.00, 1392.1, 429.5)">$</text><text xml:space="preserve" font-family="Monaco,Monaco" font-size="39.0" fill="#FEFFFE" transform="matrix(1.00, 0.00, -0.00, -1.00, 1415.5, 429.5)">(</text><text xml:space="preserve" font-family="Monaco,Monaco" font-size="39.0" fill="#FEFFFE" transform="matrix(1.00, 0.00, -0.00, -1.00, 1438.9, 429.5)">‘</text><text xml:space="preserve" font-family="Monaco,Monaco" font-size="39.0" fill="#FEFFFE" transform="matrix(1.00, 0.00, -0.00, -1.00, 1462.3, 429.5)">#</text><text xml:space="preserve" font-family="Monaco,Monaco" font-size="39.0" fill="#FEFFFE" transform="matrix(1.00, 0.00, -0.00, -1.00, 1485.7, 429.5)">t</text><text xml:space="preserve" font-family="Monaco,Monaco" font-size="39.0" fill="#FEFFFE" transform="matrix(1.00, 0.00, -0.00, -1.00, 1509.1, 429.5)">h</text><text xml:space="preserve" font-family="Monaco,Monaco" font-size="39.0" fill="#FEFFFE" transform="matrix(1.00, 0.00, -0.00, -1.00, 1532.6, 429.5)">e</text><text xml:space="preserve" font-family="Monaco,Monaco" font-size="39.0" fill="#FEFFFE" transform="matrix(1.00, 0.00, -0.00, -1.00, 1556.0, 429.5)">T</text><text xml:space="preserve" font-family="Monaco,Monaco" font-size="39.0" fill="#FEFFFE" transform="matrix(1.00, 0.00, -0.00, -1.00, 1579.4, 429.5)">a</text><text xml:space="preserve" font-family="Monaco,Monaco" font-size="39.0" fill="#FEFFFE" transform="matrix(1.00, 0.00, -0.00, -1.00, 1602.8, 429.5)">b</text><text xml:space="preserve" font-family="Monaco,Monaco" font-size="39.0" fill="#FEFFFE" transform="matrix(1.00, 0.00, -0.00, -1.00, 1626.2, 429.5)">l</text><text xml:space="preserve" font-family="Monaco,Monaco" font-size="39.0" fill="#FEFFFE" transform="matrix(1.00, 0.00, -0.00, -1.00, 1649.6, 429.5)">e</text><text xml:space="preserve" font-family="Monaco,Monaco" font-size="39.0" fill="#FEFFFE" transform="matrix(1.00, 0.00, -0.00, -1.00, 1673.0, 429.5)">’</text><text xml:space="preserve" font-family="Monaco,Monaco" font-size="39.0" fill="#FEFFFE" transform="matrix(1.00, 0.00, -0.00, -1.00, 1696.4, 429.5)">)</text></g></g></g></g><g><clipPath id="clip0x610000ca0780"><path d="M 121.5 761.5 L 1804.5 761.5 L 1804.5 127.5 L 121.5 127.5 Z M 121.5 761.5 "></path></clipPath><g clip-path="url(#clip0x610000ca0780)"><g><clipPath id="clip0x610000ca0900"><path d="M 122.5 128.5 L 1341.1 128.5 L 1341.1 338.5 L 122.5 338.5 Z M 122.5 128.5 "></path></clipPath><g clip-path="url(#clip0x610000ca0900)"><text xml:space="preserve" font-family="Monaco,Monaco" font-size="39.0" fill="#FEFFFE" transform="matrix(1.00, 0.00, -0.00, -1.00, 172.5, 218.5)">d</text><text xml:space="preserve" font-family="Monaco,Monaco" font-size="39.0" fill="#FEFFFE" transform="matrix(1.00, 0.00, -0.00, -1.00, 195.9, 218.5)">o</text><text xml:space="preserve" font-family="Monaco,Monaco" font-size="39.0" fill="#FEFFFE" transform="matrix(1.00, 0.00, -0.00, -1.00, 219.3, 218.5)">c</text><text xml:space="preserve" font-family="Monaco,Monaco" font-size="39.0" fill="#FEFFFE" transform="matrix(1.00, 0.00, -0.00, -1.00, 242.7, 218.5)">u</text><text xml:space="preserve" font-family="Monaco,Monaco" font-size="39.0" fill="#FEFFFE" transform="matrix(1.00, 0.00, -0.00, -1.00, 266.1, 218.5)">m</text><text xml:space="preserve" font-family="Monaco,Monaco" font-size="39.0" fill="#FEFFFE" transform="matrix(1.00, 0.00, -0.00, -1.00, 289.5, 218.5)">e</text><text xml:space="preserve" font-family="Monaco,Monaco" font-size="39.0" fill="#FEFFFE" transform="matrix(1.00, 0.00, -0.00, -1.00, 312.9, 218.5)">n</text><text xml:space="preserve" font-family="Monaco,Monaco" font-size="39.0" fill="#FEFFFE" transform="matrix(1.00, 0.00, -0.00, -1.00, 336.4, 218.5)">t</text><text xml:space="preserve" font-family="Monaco,Monaco" font-size="39.0" fill="#FEFFFE" transform="matrix(1.00, 0.00, -0.00, -1.00, 359.8, 218.5)">.</text><text xml:space="preserve" font-family="Monaco,Monaco" font-size="39.0" fill="#FEFFFE" transform="matrix(1.00, 0.00, -0.00, -1.00, 383.2, 218.5)">g</text><text xml:space="preserve" font-family="Monaco,Monaco" font-size="39.0" fill="#FEFFFE" transform="matrix(1.00, 0.00, -0.00, -1.00, 406.6, 218.5)">e</text><text xml:space="preserve" font-family="Monaco,Monaco" font-size="39.0" fill="#FEFFFE" transform="matrix(1.00, 0.00, -0.00, -1.00, 430.0, 218.5)">t</text><text xml:space="preserve" font-family="Monaco,Monaco" font-size="39.0" fill="#FEFFFE" transform="matrix(1.00, 0.00, -0.00, -1.00, 453.4, 218.5)">E</text><text xml:space="preserve" font-family="Monaco,Monaco" font-size="39.0" fill="#FEFFFE" transform="matrix(1.00, 0.00, -0.00, -1.00, 476.8, 218.5)">l</text><text xml:space="preserve" font-family="Monaco,Monaco" font-size="39.0" fill="#FEFFFE" transform="matrix(1.00, 0.00, -0.00, -1.00, 500.2, 218.5)">e</text><text xml:space="preserve" font-family="Monaco,Monaco" font-size="39.0" fill="#FEFFFE" transform="matrix(1.00, 0.00, -0.00, -1.00, 523.6, 218.5)">m</text><text xml:space="preserve" font-family="Monaco,Monaco" font-size="39.0" fill="#FEFFFE" transform="matrix(1.00, 0.00, -0.00, -1.00, 547.0, 218.5)">e</text><text xml:space="preserve" font-family="Monaco,Monaco" font-size="39.0" fill="#FEFFFE" transform="matrix(1.00, 0.00, -0.00, -1.00, 570.4, 218.5)">n</text><text xml:space="preserve" font-family="Monaco,Monaco" font-size="39.0" fill="#FEFFFE" transform="matrix(1.00, 0.00, -0.00, -1.00, 593.8, 218.5)">t</text><text xml:space="preserve" font-family="Monaco,Monaco" font-size="39.0" fill="#FEFFFE" transform="matrix(1.00, 0.00, -0.00, -1.00, 617.2, 218.5)">B</text><text xml:space="preserve" font-family="Monaco,Monaco" font-size="39.0" fill="#FEFFFE" transform="matrix(1.00, 0.00, -0.00, -1.00, 640.7, 218.5)">y</text><text xml:space="preserve" font-family="Monaco,Monaco" font-size="39.0" fill="#FEFFFE" transform="matrix(1.00, 0.00, -0.00, -1.00, 664.1, 218.5)">T</text><text xml:space="preserve" font-family="Monaco,Monaco" font-size="39.0" fill="#FEFFFE" transform="matrix(1.00, 0.00, -0.00, -1.00, 687.5, 218.5)">a</text><text xml:space="preserve" font-family="Monaco,Monaco" font-size="39.0" fill="#FEFFFE" transform="matrix(1.00, 0.00, -0.00, -1.00, 710.9, 218.5)">g</text><text xml:space="preserve" font-family="Monaco,Monaco" font-size="39.0" fill="#FEFFFE" transform="matrix(1.00, 0.00, -0.00, -1.00, 734.3, 218.5)">N</text><text xml:space="preserve" font-family="Monaco,Monaco" font-size="39.0" fill="#FEFFFE" transform="matrix(1.00, 0.00, -0.00, -1.00, 757.7, 218.5)">a</text><text xml:space="preserve" font-family="Monaco,Monaco" font-size="39.0" fill="#FEFFFE" transform="matrix(1.00, 0.00, -0.00, -1.00, 781.1, 218.5)">m</text><text xml:space="preserve" font-family="Monaco,Monaco" font-size="39.0" fill="#FEFFFE" transform="matrix(1.00, 0.00, -0.00, -1.00, 804.5, 218.5)">e</text><text xml:space="preserve" font-family="Monaco,Monaco" font-size="39.0" fill="#FEFFFE" transform="matrix(1.00, 0.00, -0.00, -1.00, 827.9, 218.5)">(</text><text xml:space="preserve" font-family="Monaco,Monaco" font-size="39.0" fill="#FEFFFE" transform="matrix(1.00, 0.00, -0.00, -1.00, 851.3, 218.5)">‘</text><text xml:space="preserve" font-family="Monaco,Monaco" font-size="39.0" fill="#FEFFFE" transform="matrix(1.00, 0.00, -0.00, -1.00, 874.7, 218.5)">p</text><text xml:space="preserve" font-family="Monaco,Monaco" font-size="39.0" fill="#FEFFFE" transform="matrix(1.00, 0.00, -0.00, -1.00, 898.1, 218.5)">’</text><text xml:space="preserve" font-family="Monaco,Monaco" font-size="39.0" fill="#FEFFFE" transform="matrix(1.00, 0.00, -0.00, -1.00, 921.5, 218.5)">)</text></g></g></g></g><g><clipPath id="clip0x610000ca17a0"><path d="M 121.5 761.5 L 1804.5 761.5 L 1804.5 127.5 L 121.5 127.5 Z M 121.5 761.5 "></path></clipPath><g clip-path="url(#clip0x610000ca17a0)"><g><clipPath id="clip0x610000ca1920"><path d="M 1342.1 128.5 L 1803.5 128.5 L 1803.5 338.5 L 1342.1 338.5 Z M 1342.1 128.5 "></path></clipPath><g clip-path="url(#clip0x610000ca1920)"><text xml:space="preserve" font-family="Monaco,Monaco" font-size="39.0" fill="#FEFFFE" transform="matrix(1.00, 0.00, -0.00, -1.00, 1392.1, 218.5)">$</text><text xml:space="preserve" font-family="Monaco,Monaco" font-size="39.0" fill="#FEFFFE" transform="matrix(1.00, 0.00, -0.00, -1.00, 1415.5, 218.5)">(</text><text xml:space="preserve" font-family="Monaco,Monaco" font-size="39.0" fill="#FEFFFE" transform="matrix(1.00, 0.00, -0.00, -1.00, 1438.9, 218.5)">‘</text><text xml:space="preserve" font-family="Monaco,Monaco" font-size="39.0" fill="#FEFFFE" transform="matrix(1.00, 0.00, -0.00, -1.00, 1462.3, 218.5)">p</text><text xml:space="preserve" font-family="Monaco,Monaco" font-size="39.0" fill="#FEFFFE" transform="matrix(1.00, 0.00, -0.00, -1.00, 1485.7, 218.5)">’</text><text xml:space="preserve" font-family="Monaco,Monaco" font-size="39.0" fill="#FEFFFE" transform="matrix(1.00, 0.00, -0.00, -1.00, 1509.1, 218.5)">)</text></g></g></g></g><g><clipPath id="clip0x610000ca1d40"><path d="M 121.5 761.5 L 1804.5 761.5 L 1804.5 127.5 L 121.5 127.5 Z M 121.5 761.5 "></path></clipPath><g clip-path="url(#clip0x610000ca1d40)"><g><clipPath id="clip0x610000ca1ec0"><path d="M 0.0 0.0 L 1920.0 0.0 L 1920.0 1080.0 L 0.0 1080.0 Z M 0.0 0.0 "></path></clipPath><g clip-path="url(#clip0x610000ca1ec0)"><path d="M 1221.6 1.5 L 1221.6 635.5 " fill="none" stroke="#CACACA" stroke-width="1.00" transform="matrix(1.00, 0.00, 0.00, -1.00, 120.0, 763.0)"></path><path d="M 1.5 213.0 L 1684.5 213.0 " fill="none" stroke="#CACACA" stroke-width="1.00" transform="matrix(1.00, 0.00, 0.00, -1.00, 120.0, 763.0)"></path><path d="M 1.5 424.0 L 1684.5 424.0 " fill="none" stroke="#CACACA" stroke-width="1.00" transform="matrix(1.00, 0.00, 0.00, -1.00, 120.0, 763.0)"></path><path d="M 2.0 1.5 L 2.0 635.5 " fill="none" stroke="#CACACA" stroke-width="1.00" transform="matrix(1.00, 0.00, 0.00, -1.00, 120.0, 763.0)"></path><path d="M 1684.0 1.5 L 1684.0 635.5 " fill="none" stroke="#CACACA" stroke-width="1.00" transform="matrix(1.00, 0.00, 0.00, -1.00, 120.0, 763.0)"></path><path d="M 1.5 2.0 L 1684.5 2.0 " fill="none" stroke="#CACACA" stroke-width="1.00" transform="matrix(1.00, 0.00, 0.00, -1.00, 120.0, 763.0)"></path><path d="M 1.5 635.0 L 1684.5 635.0 " fill="none" stroke="#CACACA" stroke-width="1.00" transform="matrix(1.00, 0.00, 0.00, -1.00, 120.0, 763.0)"></path></g></g></g></g></g></g></svg>