<?xml version="1.0" encoding="UTF-8" standalone="no"?><svg xmlns="http://www.w3.org/2000/svg" xmlns:xlink="http://www.w3.org/1999/xlink" clip-rule="evenodd" stroke-miterlimit="10" viewBox="0 0 1920 1080"><desc>SVG generated by Keynote</desc><defs></defs><g transform="matrix(1.00, 0.00, -0.00, -1.00, 0.0, 1080.0)"><g><clipPath id="clip0x608000cb7d00"><path d="M 0.0 1080.0 L 1920.0 1080.0 L 1920.0 0.0 L 0.0 0.0 Z M 0.0 1080.0 "></path></clipPath><g clip-path="url(#clip0x608000cb7d00)"><image xlink:href="../../9CEB79A6-1FE0-49C0-9465-5E1E6F73F21E/assets/31B52EA7DD6094DF53931C71CD46DB84.jpeg" width="3840.00" height="2160.00" transform="matrix(0.50, 0.00, -0.00, -0.50, 0.0, 1080.0)"></image></g></g><text xml:space="preserve" font-family="Helvetica-Light,Helvetica" font-size="112.0" fill="#FEFFFF" transform="matrix(1.00, 0.00, -0.00, -1.00, 730.2, 875.8)">S</text><text xml:space="preserve" font-family="Helvetica-Light,Helvetica" font-size="112.0" fill="#FEFFFF" transform="matrix(1.00, 0.00, -0.00, -1.00, 798.6, 875.8)">e</text><text xml:space="preserve" font-family="Helvetica-Light,Helvetica" font-size="112.0" fill="#FEFFFF" transform="matrix(1.00, 0.00, -0.00, -1.00, 860.9, 875.8)">l</text><text xml:space="preserve" font-family="Helvetica-Light,Helvetica" font-size="112.0" fill="#FEFFFF" transform="matrix(1.00, 0.00, -0.00, -1.00, 885.7, 875.8)">e</text><text xml:space="preserve" font-family="Helvetica-Light,Helvetica" font-size="112.0" fill="#FEFFFF" transform="matrix(1.00, 0.00, -0.00, -1.00, 948.0, 875.8)">c</text><text xml:space="preserve" font-family="Helvetica-Light,Helvetica" font-size="112.0" fill="#FEFFFF" transform="matrix(1.00, 0.00, -0.00, -1.00, 1010.3, 875.8)">t</text><text xml:space="preserve" font-family="Helvetica-Light,Helvetica" font-size="112.0" fill="#FEFFFF" transform="matrix(1.00, 0.00, -0.00, -1.00, 1041.4, 875.8)">i</text><text xml:space="preserve" font-family="Helvetica-Light,Helvetica" font-size="112.0" fill="#FEFFFF" transform="matrix(1.00, 0.00, -0.00, -1.00, 1066.3, 875.8)">o</text><text xml:space="preserve" font-family="Helvetica-Light,Helvetica" font-size="112.0" fill="#FEFFFF" transform="matrix(1.00, 0.00, -0.00, -1.00, 1128.6, 875.8)">n</text><text xml:space="preserve" font-family="Helvetica-Light,Helvetica" font-size="39.0" fill="#FEFFFF" transform="matrix(1.00, 0.00, -0.00, -1.00, 145.0, 672.5)">•</text><text xml:space="preserve" font-family="Helvetica-Light,Helvetica" font-size="52.0" fill="#FEFFFF" transform="matrix(1.00, 0.00, -0.00, -1.00, 193.0, 668.0)">E</text><text xml:space="preserve" font-family="Helvetica-Light,Helvetica" font-size="52.0" fill="#FEFFFF" transform="matrix(1.00, 0.00, -0.00, -1.00, 224.8, 668.0)">l</text><text xml:space="preserve" font-family="Helvetica-Light,Helvetica" font-size="52.0" fill="#FEFFFF" transform="matrix(1.00, 0.00, -0.00, -1.00, 236.3, 668.0)">e</text><text xml:space="preserve" font-family="Helvetica-Light,Helvetica" font-size="52.0" fill="#FEFFFF" transform="matrix(1.00, 0.00, -0.00, -1.00, 265.2, 668.0)">m</text><text xml:space="preserve" font-family="Helvetica-Light,Helvetica" font-size="52.0" fill="#FEFFFF" transform="matrix(1.00, 0.00, -0.00, -1.00, 308.5, 668.0)">e</text><text xml:space="preserve" font-family="Helvetica-Light,Helvetica" font-size="52.0" fill="#FEFFFF" transform="matrix(1.00, 0.00, -0.00, -1.00, 337.5, 668.0)">n</text><text xml:space="preserve" font-family="Helvetica-Light,Helvetica" font-size="52.0" fill="#FEFFFF" transform="matrix(1.00, 0.00, -0.00, -1.00, 366.4, 668.0)">t</text><text xml:space="preserve" font-family="Helvetica-Light,Helvetica" font-size="52.0" fill="#FEFFFF" transform="matrix(1.00, 0.00, -0.00, -1.00, 380.8, 668.0)"> </text><text xml:space="preserve" font-family="Helvetica-Light,Helvetica" font-size="52.0" fill="#FEFFFF" transform="matrix(1.00, 0.00, -0.00, -1.00, 395.3, 668.0)">t</text><text xml:space="preserve" font-family="Helvetica-Light,Helvetica" font-size="52.0" fill="#FEFFFF" transform="matrix(1.00, 0.00, -0.00, -1.00, 409.7, 668.0)">y</text><text xml:space="preserve" font-family="Helvetica-Light,Helvetica" font-size="52.0" fill="#FEFFFF" transform="matrix(1.00, 0.00, -0.00, -1.00, 435.7, 668.0)">p</text><text xml:space="preserve" font-family="Helvetica-Light,Helvetica" font-size="52.0" fill="#FEFFFF" transform="matrix(1.00, 0.00, -0.00, -1.00, 467.5, 668.0)">e</text><text xml:space="preserve" font-family="Helvetica-Light,Helvetica" font-size="52.0" fill="#FEFFFF" transform="matrix(1.00, 0.00, -0.00, -1.00, 496.4, 668.0)"> </text><text xml:space="preserve" font-family="Helvetica-Light,Helvetica" font-size="39.0" fill="#FEFFFF" transform="matrix(1.00, 0.00, -0.00, -1.00, 145.0, 551.5)">•</text><text xml:space="preserve" font-family="Helvetica-Light,Helvetica" font-size="52.0" fill="#FEFFFF" transform="matrix(1.00, 0.00, -0.00, -1.00, 193.0, 547.0)">E</text><text xml:space="preserve" font-family="Helvetica-Light,Helvetica" font-size="52.0" fill="#FEFFFF" transform="matrix(1.00, 0.00, -0.00, -1.00, 224.8, 547.0)">l</text><text xml:space="preserve" font-family="Helvetica-Light,Helvetica" font-size="52.0" fill="#FEFFFF" transform="matrix(1.00, 0.00, -0.00, -1.00, 236.3, 547.0)">e</text><text xml:space="preserve" font-family="Helvetica-Light,Helvetica" font-size="52.0" fill="#FEFFFF" transform="matrix(1.00, 0.00, -0.00, -1.00, 265.2, 547.0)">m</text><text xml:space="preserve" font-family="Helvetica-Light,Helvetica" font-size="52.0" fill="#FEFFFF" transform="matrix(1.00, 0.00, -0.00, -1.00, 308.5, 547.0)">e</text><text xml:space="preserve" font-family="Helvetica-Light,Helvetica" font-size="52.0" fill="#FEFFFF" transform="matrix(1.00, 0.00, -0.00, -1.00, 337.5, 547.0)">n</text><text xml:space="preserve" font-family="Helvetica-Light,Helvetica" font-size="52.0" fill="#FEFFFF" transform="matrix(1.00, 0.00, -0.00, -1.00, 366.4, 547.0)">t</text><text xml:space="preserve" font-family="Helvetica-Light,Helvetica" font-size="52.0" fill="#FEFFFF" transform="matrix(1.00, 0.00, -0.00, -1.00, 380.8, 547.0)"> </text><text xml:space="preserve" font-family="Helvetica-Light,Helvetica" font-size="52.0" fill="#FEFFFF" transform="matrix(1.00, 0.00, -0.00, -1.00, 395.3, 547.0)">a</text><text xml:space="preserve" font-family="Helvetica-Light,Helvetica" font-size="52.0" fill="#FEFFFF" transform="matrix(1.00, 0.00, -0.00, -1.00, 424.2, 547.0)">t</text><text xml:space="preserve" font-family="Helvetica-Light,Helvetica" font-size="52.0" fill="#FEFFFF" transform="matrix(1.00, 0.00, -0.00, -1.00, 438.6, 547.0)">t</text><text xml:space="preserve" font-family="Helvetica-Light,Helvetica" font-size="52.0" fill="#FEFFFF" transform="matrix(1.00, 0.00, -0.00, -1.00, 453.1, 547.0)">r</text><text xml:space="preserve" font-family="Helvetica-Light,Helvetica" font-size="52.0" fill="#FEFFFF" transform="matrix(1.00, 0.00, -0.00, -1.00, 470.4, 547.0)">i</text><text xml:space="preserve" font-family="Helvetica-Light,Helvetica" font-size="52.0" fill="#FEFFFF" transform="matrix(1.00, 0.00, -0.00, -1.00, 482.0, 547.0)">b</text><text xml:space="preserve" font-family="Helvetica-Light,Helvetica" font-size="52.0" fill="#FEFFFF" transform="matrix(1.00, 0.00, -0.00, -1.00, 513.7, 547.0)">u</text><text xml:space="preserve" font-family="Helvetica-Light,Helvetica" font-size="52.0" fill="#FEFFFF" transform="matrix(1.00, 0.00, -0.00, -1.00, 542.6, 547.0)">t</text><text xml:space="preserve" font-family="Helvetica-Light,Helvetica" font-size="52.0" fill="#FEFFFF" transform="matrix(1.00, 0.00, -0.00, -1.00, 557.1, 547.0)">e</text><text xml:space="preserve" font-family="Helvetica-Light,Helvetica" font-size="52.0" fill="#FEFFFF" transform="matrix(1.00, 0.00, -0.00, -1.00, 586.0, 547.0)"> </text><text xml:space="preserve" font-family="Helvetica-Light,Helvetica" font-size="39.0" fill="#FEFFFF" transform="matrix(1.00, 0.00, -0.00, -1.00, 145.0, 430.5)">•</text><text xml:space="preserve" font-family="Helvetica-Light,Helvetica" font-size="52.0" fill="#FEFFFF" transform="matrix(1.00, 0.00, -0.00, -1.00, 193.0, 426.0)">E</text><text xml:space="preserve" font-family="Helvetica-Light,Helvetica" font-size="52.0" fill="#FEFFFF" transform="matrix(1.00, 0.00, -0.00, -1.00, 224.8, 426.0)">l</text><text xml:space="preserve" font-family="Helvetica-Light,Helvetica" font-size="52.0" fill="#FEFFFF" transform="matrix(1.00, 0.00, -0.00, -1.00, 236.3, 426.0)">e</text><text xml:space="preserve" font-family="Helvetica-Light,Helvetica" font-size="52.0" fill="#FEFFFF" transform="matrix(1.00, 0.00, -0.00, -1.00, 265.2, 426.0)">m</text><text xml:space="preserve" font-family="Helvetica-Light,Helvetica" font-size="52.0" fill="#FEFFFF" transform="matrix(1.00, 0.00, -0.00, -1.00, 308.5, 426.0)">e</text><text xml:space="preserve" font-family="Helvetica-Light,Helvetica" font-size="52.0" fill="#FEFFFF" transform="matrix(1.00, 0.00, -0.00, -1.00, 337.5, 426.0)">n</text><text xml:space="preserve" font-family="Helvetica-Light,Helvetica" font-size="52.0" fill="#FEFFFF" transform="matrix(1.00, 0.00, -0.00, -1.00, 366.4, 426.0)">t</text><text xml:space="preserve" font-family="Helvetica-Light,Helvetica" font-size="52.0" fill="#FEFFFF" transform="matrix(1.00, 0.00, -0.00, -1.00, 380.8, 426.0)"> </text><text xml:space="preserve" font-family="Helvetica-Light,Helvetica" font-size="52.0" fill="#FEFFFF" transform="matrix(1.00, 0.00, -0.00, -1.00, 395.3, 426.0)">c</text><text xml:space="preserve" font-family="Helvetica-Light,Helvetica" font-size="52.0" fill="#FEFFFF" transform="matrix(1.00, 0.00, -0.00, -1.00, 424.2, 426.0)">l</text><text xml:space="preserve" font-family="Helvetica-Light,Helvetica" font-size="52.0" fill="#FEFFFF" transform="matrix(1.00, 0.00, -0.00, -1.00, 435.7, 426.0)">a</text><text xml:space="preserve" font-family="Helvetica-Light,Helvetica" font-size="52.0" fill="#FEFFFF" transform="matrix(1.00, 0.00, -0.00, -1.00, 464.6, 426.0)">s</text><text xml:space="preserve" font-family="Helvetica-Light,Helvetica" font-size="52.0" fill="#FEFFFF" transform="matrix(1.00, 0.00, -0.00, -1.00, 490.6, 426.0)">s</text><text xml:space="preserve" font-family="Helvetica-Light,Helvetica" font-size="52.0" fill="#FEFFFF" transform="matrix(1.00, 0.00, -0.00, -1.00, 516.6, 426.0)"> </text><text xml:space="preserve" font-family="Helvetica-Light,Helvetica" font-size="39.0" fill="#FEFFFF" transform="matrix(1.00, 0.00, -0.00, -1.00, 145.0, 309.5)">•</text><text xml:space="preserve" font-family="Helvetica-Light,Helvetica" font-size="52.0" fill="#FEFFFF" transform="matrix(1.00, 0.00, -0.00, -1.00, 193.0, 305.0)">E</text><text xml:space="preserve" font-family="Helvetica-Light,Helvetica" font-size="52.0" fill="#FEFFFF" transform="matrix(1.00, 0.00, -0.00, -1.00, 224.8, 305.0)">l</text><text xml:space="preserve" font-family="Helvetica-Light,Helvetica" font-size="52.0" fill="#FEFFFF" transform="matrix(1.00, 0.00, -0.00, -1.00, 236.3, 305.0)">e</text><text xml:space="preserve" font-family="Helvetica-Light,Helvetica" font-size="52.0" fill="#FEFFFF" transform="matrix(1.00, 0.00, -0.00, -1.00, 265.2, 305.0)">m</text><text xml:space="preserve" font-family="Helvetica-Light,Helvetica" font-size="52.0" fill="#FEFFFF" transform="matrix(1.00, 0.00, -0.00, -1.00, 308.5, 305.0)">e</text><text xml:space="preserve" font-family="Helvetica-Light,Helvetica" font-size="52.0" fill="#FEFFFF" transform="matrix(1.00, 0.00, -0.00, -1.00, 337.5, 305.0)">n</text><text xml:space="preserve" font-family="Helvetica-Light,Helvetica" font-size="52.0" fill="#FEFFFF" transform="matrix(1.00, 0.00, -0.00, -1.00, 366.4, 305.0)">t</text><text xml:space="preserve" font-family="Helvetica-Light,Helvetica" font-size="52.0" fill="#FEFFFF" transform="matrix(1.00, 0.00, -0.00, -1.00, 380.8, 305.0)"> </text><text xml:space="preserve" font-family="Helvetica-Light,Helvetica" font-size="52.0" fill="#FEFFFF" transform="matrix(1.00, 0.00, -0.00, -1.00, 395.3, 305.0)">I</text><text xml:space="preserve" font-family="Helvetica-Light,Helvetica" font-size="52.0" fill="#FEFFFF" transform="matrix(1.00, 0.00, -0.00, -1.00, 409.7, 305.0)">D</text><text xml:space="preserve" font-family="Helvetica-Light,Helvetica" font-size="52.0" fill="#FEFFFF" transform="matrix(1.00, 0.00, -0.00, -1.00, 447.3, 305.0)"> </text><text xml:space="preserve" font-family="Helvetica-Light,Helvetica" font-size="39.0" fill="#FEFFFF" transform="matrix(1.00, 0.00, -0.00, -1.00, 145.0, 188.5)">•</text><text xml:space="preserve" font-family="Helvetica-Light,Helvetica" font-size="52.0" fill="#FEFFFF" transform="matrix(1.00, 0.00, -0.00, -1.00, 193.0, 184.0)">P</text><text xml:space="preserve" font-family="Helvetica-Light,Helvetica" font-size="52.0" fill="#FEFFFF" transform="matrix(1.00, 0.00, -0.00, -1.00, 224.8, 184.0)">s</text><text xml:space="preserve" font-family="Helvetica-Light,Helvetica" font-size="52.0" fill="#FEFFFF" transform="matrix(1.00, 0.00, -0.00, -1.00, 250.8, 184.0)">e</text><text xml:space="preserve" font-family="Helvetica-Light,Helvetica" font-size="52.0" fill="#FEFFFF" transform="matrix(1.00, 0.00, -0.00, -1.00, 279.7, 184.0)">u</text><text xml:space="preserve" font-family="Helvetica-Light,Helvetica" font-size="52.0" fill="#FEFFFF" transform="matrix(1.00, 0.00, -0.00, -1.00, 308.6, 184.0)">d</text><text xml:space="preserve" font-family="Helvetica-Light,Helvetica" font-size="52.0" fill="#FEFFFF" transform="matrix(1.00, 0.00, -0.00, -1.00, 340.4, 184.0)">o</text><text xml:space="preserve" font-family="Helvetica-Light,Helvetica" font-size="52.0" fill="#FEFFFF" transform="matrix(1.00, 0.00, -0.00, -1.00, 369.3, 184.0)"> </text><text xml:space="preserve" font-family="Helvetica-Light,Helvetica" font-size="52.0" fill="#FEFFFF" transform="matrix(1.00, 0.00, -0.00, -1.00, 383.7, 184.0)">c</text><text xml:space="preserve" font-family="Helvetica-Light,Helvetica" font-size="52.0" fill="#FEFFFF" transform="matrix(1.00, 0.00, -0.00, -1.00, 412.6, 184.0)">l</text><text xml:space="preserve" font-family="Helvetica-Light,Helvetica" font-size="52.0" fill="#FEFFFF" transform="matrix(1.00, 0.00, -0.00, -1.00, 424.2, 184.0)">a</text><text xml:space="preserve" font-family="Helvetica-Light,Helvetica" font-size="52.0" fill="#FEFFFF" transform="matrix(1.00, 0.00, -0.00, -1.00, 453.1, 184.0)">s</text><text xml:space="preserve" font-family="Helvetica-Light,Helvetica" font-size="52.0" fill="#FEFFFF" transform="matrix(1.00, 0.00, -0.00, -1.00, 479.1, 184.0)">s</text><text xml:space="preserve" font-family="Helvetica-Light,Helvetica" font-size="52.0" fill="#FEFFFF" transform="matrix(1.00, 0.00, -0.00, -1.00, 505.1, 184.0)">e</text><text xml:space="preserve" font-family="Helvetica-Light,Helvetica" font-size="52.0" fill="#FEFFFF" transform="matrix(1.00, 0.00, -0.00, -1.00, 534.0, 184.0)">s</text><text xml:space="preserve" font-family="Helvetica-Light,Helvetica" font-size="69.0" fill="#FEFFFF" transform="matrix(1.00, 0.00, -0.00, -1.00, 851.0, 656.4)">T</text><text xml:space="preserve" font-family="Helvetica-Light,Helvetica" font-size="69.0" fill="#FEFFFF" transform="matrix(1.00, 0.00, -0.00, -1.00, 889.3, 656.4)">h</text><text xml:space="preserve" font-family="Helvetica-Light,Helvetica" font-size="69.0" fill="#FEFFFF" transform="matrix(1.00, 0.00, -0.00, -1.00, 927.7, 656.4)">e</text><text xml:space="preserve" font-family="Helvetica-Light,Helvetica" font-size="69.0" fill="#FEFFFF" transform="matrix(1.00, 0.00, -0.00, -1.00, 966.0, 656.4)"> </text><text xml:space="preserve" font-family="Helvetica-Light,Helvetica" font-size="69.0" fill="#FEFFFF" transform="matrix(1.00, 0.00, -0.00, -1.00, 985.2, 656.4)">s</text><text xml:space="preserve" font-family="Helvetica-Light,Helvetica" font-size="69.0" fill="#FEFFFF" transform="matrix(1.00, 0.00, -0.00, -1.00, 1019.7, 656.4)">e</text><text xml:space="preserve" font-family="Helvetica-Light,Helvetica" font-size="69.0" fill="#FEFFFF" transform="matrix(1.00, 0.00, -0.00, -1.00, 1058.1, 656.4)">l</text><text xml:space="preserve" font-family="Helvetica-Light,Helvetica" font-size="69.0" fill="#FEFFFF" transform="matrix(1.00, 0.00, -0.00, -1.00, 1073.4, 656.4)">e</text><text xml:space="preserve" font-family="Helvetica-Light,Helvetica" font-size="69.0" fill="#FEFFFF" transform="matrix(1.00, 0.00, -0.00, -1.00, 1111.8, 656.4)">c</text><text xml:space="preserve" font-family="Helvetica-Light,Helvetica" font-size="69.0" fill="#FEFFFF" transform="matrix(1.00, 0.00, -0.00, -1.00, 1150.1, 656.4)">t</text><text xml:space="preserve" font-family="Helvetica-Light,Helvetica" font-size="69.0" fill="#FEFFFF" transform="matrix(1.00, 0.00, -0.00, -1.00, 1169.3, 656.4)">i</text><text xml:space="preserve" font-family="Helvetica-Light,Helvetica" font-size="69.0" fill="#FEFFFF" transform="matrix(1.00, 0.00, -0.00, -1.00, 1184.6, 656.4)">o</text><text xml:space="preserve" font-family="Helvetica-Light,Helvetica" font-size="69.0" fill="#FEFFFF" transform="matrix(1.00, 0.00, -0.00, -1.00, 1223.0, 656.4)">n</text><text xml:space="preserve" font-family="Helvetica-Light,Helvetica" font-size="69.0" fill="#FEFFFF" transform="matrix(1.00, 0.00, -0.00, -1.00, 1261.4, 656.4)"> </text><text xml:space="preserve" font-family="Helvetica-Light,Helvetica" font-size="69.0" fill="#FEFFFF" transform="matrix(1.00, 0.00, -0.00, -1.00, 1280.6, 656.4)">c</text><text xml:space="preserve" font-family="Helvetica-Light,Helvetica" font-size="69.0" fill="#FEFFFF" transform="matrix(1.00, 0.00, -0.00, -1.00, 1318.9, 656.4)">r</text><text xml:space="preserve" font-family="Helvetica-Light,Helvetica" font-size="69.0" fill="#FEFFFF" transform="matrix(1.00, 0.00, -0.00, -1.00, 1341.9, 656.4)">i</text><text xml:space="preserve" font-family="Helvetica-Light,Helvetica" font-size="69.0" fill="#FEFFFF" transform="matrix(1.00, 0.00, -0.00, -1.00, 1357.2, 656.4)">t</text><text xml:space="preserve" font-family="Helvetica-Light,Helvetica" font-size="69.0" fill="#FEFFFF" transform="matrix(1.00, 0.00, -0.00, -1.00, 1376.4, 656.4)">e</text><text xml:space="preserve" font-family="Helvetica-Light,Helvetica" font-size="69.0" fill="#FEFFFF" transform="matrix(1.00, 0.00, -0.00, -1.00, 1414.8, 656.4)">r</text><text xml:space="preserve" font-family="Helvetica-Light,Helvetica" font-size="69.0" fill="#FEFFFF" transform="matrix(1.00, 0.00, -0.00, -1.00, 1437.7, 656.4)">i</text><text xml:space="preserve" font-family="Helvetica-Light,Helvetica" font-size="69.0" fill="#FEFFFF" transform="matrix(1.00, 0.00, -0.00, -1.00, 1453.1, 656.4)">a</text><text xml:space="preserve" font-family="Helvetica-Light,Helvetica" font-size="69.0" fill="#FEFFFF" transform="matrix(1.00, 0.00, -0.00, -1.00, 1491.4, 656.4)"> </text><text xml:space="preserve" font-family="Helvetica-Light,Helvetica" font-size="69.0" fill="#FEFFFF" transform="matrix(1.00, 0.00, -0.00, -1.00, 1510.6, 656.4)">u</text><text xml:space="preserve" font-family="Helvetica-Light,Helvetica" font-size="69.0" fill="#FEFFFF" transform="matrix(1.00, 0.00, -0.00, -1.00, 1549.0, 656.4)">s</text><text xml:space="preserve" font-family="Helvetica-Light,Helvetica" font-size="69.0" fill="#FEFFFF" transform="matrix(1.00, 0.00, -0.00, -1.00, 1583.5, 656.4)">e</text><text xml:space="preserve" font-family="Helvetica-Light,Helvetica" font-size="69.0" fill="#FEFFFF" transform="matrix(1.00, 0.00, -0.00, -1.00, 1621.8, 656.4)">d</text><text xml:space="preserve" font-family="Helvetica-Light,Helvetica" font-size="69.0" fill="#FEFFFF" transform="matrix(1.00, 0.00, -0.00, -1.00, 1664.0, 656.4)"> </text><text xml:space="preserve" font-family="Helvetica-Light,Helvetica" font-size="69.0" fill="#FEFFFF" transform="matrix(1.00, 0.00, -0.00, -1.00, 1683.2, 656.4)">b</text><text xml:space="preserve" font-family="Helvetica-Light,Helvetica" font-size="69.0" fill="#FEFFFF" transform="matrix(1.00, 0.00, -0.00, -1.00, 1725.3, 656.4)">y</text><text xml:space="preserve" font-family="Helvetica-Light,Helvetica" font-size="69.0" fill="#FEFFFF" transform="matrix(1.00, 0.00, -0.00, -1.00, 1759.8, 656.4)"> </text><text xml:space="preserve" font-family="Helvetica-Light,Helvetica" font-size="69.0" fill="#FEFFFF" transform="matrix(1.00, 0.00, -0.00, -1.00, 851.0, 573.4)">j</text><text xml:space="preserve" font-family="Helvetica-Light,Helvetica" font-size="69.0" fill="#FEFFFF" transform="matrix(1.00, 0.00, -0.00, -1.00, 866.3, 573.4)">Q</text><text xml:space="preserve" font-family="Helvetica-Light,Helvetica" font-size="69.0" fill="#FEFFFF" transform="matrix(1.00, 0.00, -0.00, -1.00, 920.0, 573.4)">u</text><text xml:space="preserve" font-family="Helvetica-Light,Helvetica" font-size="69.0" fill="#FEFFFF" transform="matrix(1.00, 0.00, -0.00, -1.00, 958.3, 573.4)">e</text><text xml:space="preserve" font-family="Helvetica-Light,Helvetica" font-size="69.0" fill="#FEFFFF" transform="matrix(1.00, 0.00, -0.00, -1.00, 996.7, 573.4)">r</text><text xml:space="preserve" font-family="Helvetica-Light,Helvetica" font-size="69.0" fill="#FEFFFF" transform="matrix(1.00, 0.00, -0.00, -1.00, 1020.9, 573.4)">y</text><text xml:space="preserve" font-family="Helvetica-Light,Helvetica" font-size="69.0" fill="#FEFFFF" transform="matrix(1.00, 0.00, -0.00, -1.00, 1055.4, 573.4)"> </text><text xml:space="preserve" font-family="Helvetica-Light,Helvetica" font-size="69.0" fill="#FEFFFF" transform="matrix(1.00, 0.00, -0.00, -1.00, 1074.6, 573.4)">i</text><text xml:space="preserve" font-family="Helvetica-Light,Helvetica" font-size="69.0" fill="#FEFFFF" transform="matrix(1.00, 0.00, -0.00, -1.00, 1089.9, 573.4)">s</text><text xml:space="preserve" font-family="Helvetica-Light,Helvetica" font-size="69.0" fill="#FEFFFF" transform="matrix(1.00, 0.00, -0.00, -1.00, 1124.4, 573.4)"> </text><text xml:space="preserve" font-family="Helvetica-Light,Helvetica" font-size="69.0" fill="#FEFFFF" transform="matrix(1.00, 0.00, -0.00, -1.00, 1143.6, 573.4)">e</text><text xml:space="preserve" font-family="Helvetica-Light,Helvetica" font-size="69.0" fill="#FEFFFF" transform="matrix(1.00, 0.00, -0.00, -1.00, 1182.0, 573.4)">s</text><text xml:space="preserve" font-family="Helvetica-Light,Helvetica" font-size="69.0" fill="#FEFFFF" transform="matrix(1.00, 0.00, -0.00, -1.00, 1216.5, 573.4)">s</text><text xml:space="preserve" font-family="Helvetica-Light,Helvetica" font-size="69.0" fill="#FEFFFF" transform="matrix(1.00, 0.00, -0.00, -1.00, 1251.0, 573.4)">e</text><text xml:space="preserve" font-family="Helvetica-Light,Helvetica" font-size="69.0" fill="#FEFFFF" transform="matrix(1.00, 0.00, -0.00, -1.00, 1289.3, 573.4)">n</text><text xml:space="preserve" font-family="Helvetica-Light,Helvetica" font-size="69.0" fill="#FEFFFF" transform="matrix(1.00, 0.00, -0.00, -1.00, 1327.7, 573.4)">t</text><text xml:space="preserve" font-family="Helvetica-Light,Helvetica" font-size="69.0" fill="#FEFFFF" transform="matrix(1.00, 0.00, -0.00, -1.00, 1346.9, 573.4)">i</text><text xml:space="preserve" font-family="Helvetica-Light,Helvetica" font-size="69.0" fill="#FEFFFF" transform="matrix(1.00, 0.00, -0.00, -1.00, 1362.2, 573.4)">a</text><text xml:space="preserve" font-family="Helvetica-Light,Helvetica" font-size="69.0" fill="#FEFFFF" transform="matrix(1.00, 0.00, -0.00, -1.00, 1400.5, 573.4)">l</text><text xml:space="preserve" font-family="Helvetica-Light,Helvetica" font-size="69.0" fill="#FEFFFF" transform="matrix(1.00, 0.00, -0.00, -1.00, 1415.9, 573.4)">l</text><text xml:space="preserve" font-family="Helvetica-Light,Helvetica" font-size="69.0" fill="#FEFFFF" transform="matrix(1.00, 0.00, -0.00, -1.00, 1431.2, 573.4)">y</text><text xml:space="preserve" font-family="Helvetica-Light,Helvetica" font-size="69.0" fill="#FEFFFF" transform="matrix(1.00, 0.00, -0.00, -1.00, 1465.7, 573.4)"> </text><text xml:space="preserve" font-family="Helvetica-Light,Helvetica" font-size="69.0" fill="#FEFFFF" transform="matrix(1.00, 0.00, -0.00, -1.00, 1484.9, 573.4)">t</text><text xml:space="preserve" font-family="Helvetica-Light,Helvetica" font-size="69.0" fill="#FEFFFF" transform="matrix(1.00, 0.00, -0.00, -1.00, 1504.0, 573.4)">h</text><text xml:space="preserve" font-family="Helvetica-Light,Helvetica" font-size="69.0" fill="#FEFFFF" transform="matrix(1.00, 0.00, -0.00, -1.00, 1542.4, 573.4)">e</text><text xml:space="preserve" font-family="Helvetica-Light,Helvetica" font-size="69.0" fill="#FEFFFF" transform="matrix(1.00, 0.00, -0.00, -1.00, 1580.8, 573.4)"> </text><text xml:space="preserve" font-family="Helvetica-Light,Helvetica" font-size="69.0" fill="#FEFFFF" transform="matrix(1.00, 0.00, -0.00, -1.00, 1600.0, 573.4)">s</text><text xml:space="preserve" font-family="Helvetica-Light,Helvetica" font-size="69.0" fill="#FEFFFF" transform="matrix(1.00, 0.00, -0.00, -1.00, 1634.5, 573.4)">a</text><text xml:space="preserve" font-family="Helvetica-Light,Helvetica" font-size="69.0" fill="#FEFFFF" transform="matrix(1.00, 0.00, -0.00, -1.00, 1672.8, 573.4)">m</text><text xml:space="preserve" font-family="Helvetica-Light,Helvetica" font-size="69.0" fill="#FEFFFF" transform="matrix(1.00, 0.00, -0.00, -1.00, 1730.3, 573.4)">e</text><text xml:space="preserve" font-family="Helvetica-Light,Helvetica" font-size="69.0" fill="#FEFFFF" transform="matrix(1.00, 0.00, -0.00, -1.00, 1768.7, 573.4)"> </text><text xml:space="preserve" font-family="Helvetica-Light,Helvetica" font-size="69.0" fill="#FEFFFF" transform="matrix(1.00, 0.00, -0.00, -1.00, 851.0, 490.4)">a</text><text xml:space="preserve" font-family="Helvetica-Light,Helvetica" font-size="69.0" fill="#FEFFFF" transform="matrix(1.00, 0.00, -0.00, -1.00, 889.3, 490.4)">s</text><text xml:space="preserve" font-family="Helvetica-Light,Helvetica" font-size="69.0" fill="#FEFFFF" transform="matrix(1.00, 0.00, -0.00, -1.00, 923.8, 490.4)"> </text><text xml:space="preserve" font-family="Helvetica-Light,Helvetica" font-size="69.0" fill="#FEFFFF" transform="matrix(1.00, 0.00, -0.00, -1.00, 943.0, 490.4)">u</text><text xml:space="preserve" font-family="Helvetica-Light,Helvetica" font-size="69.0" fill="#FEFFFF" transform="matrix(1.00, 0.00, -0.00, -1.00, 981.4, 490.4)">s</text><text xml:space="preserve" font-family="Helvetica-Light,Helvetica" font-size="69.0" fill="#FEFFFF" transform="matrix(1.00, 0.00, -0.00, -1.00, 1015.9, 490.4)">e</text><text xml:space="preserve" font-family="Helvetica-Light,Helvetica" font-size="69.0" fill="#FEFFFF" transform="matrix(1.00, 0.00, -0.00, -1.00, 1054.2, 490.4)">d</text><text xml:space="preserve" font-family="Helvetica-Light,Helvetica" font-size="69.0" fill="#FEFFFF" transform="matrix(1.00, 0.00, -0.00, -1.00, 1096.4, 490.4)"> </text><text xml:space="preserve" font-family="Helvetica-Light,Helvetica" font-size="69.0" fill="#FEFFFF" transform="matrix(1.00, 0.00, -0.00, -1.00, 1115.6, 490.4)">b</text><text xml:space="preserve" font-family="Helvetica-Light,Helvetica" font-size="69.0" fill="#FEFFFF" transform="matrix(1.00, 0.00, -0.00, -1.00, 1157.7, 490.4)">y</text><text xml:space="preserve" font-family="Helvetica-Light,Helvetica" font-size="69.0" fill="#FEFFFF" transform="matrix(1.00, 0.00, -0.00, -1.00, 1192.2, 490.4)"> </text><text xml:space="preserve" font-family="Helvetica-Light,Helvetica" font-size="69.0" fill="#FEFFFF" transform="matrix(1.00, 0.00, -0.00, -1.00, 1211.4, 490.4)">C</text><text xml:space="preserve" font-family="Helvetica-Light,Helvetica" font-size="69.0" fill="#FEFFFF" transform="matrix(1.00, 0.00, -0.00, -1.00, 1261.2, 490.4)">S</text><text xml:space="preserve" font-family="Helvetica-Light,Helvetica" font-size="69.0" fill="#FEFFFF" transform="matrix(1.00, 0.00, -0.00, -1.00, 1303.4, 490.4)">S</text><text xml:space="preserve" font-family="Helvetica-Light,Helvetica" font-size="69.0" fill="#FEFFFF" transform="matrix(1.00, 0.00, -0.00, -1.00, 1345.5, 490.4)">.</text><text xml:space="preserve" font-family="Helvetica-Light,Helvetica" font-size="69.0" fill="#FEFFFF" transform="matrix(1.00, 0.00, -0.00, -1.00, 1364.7, 490.4)"> </text><text xml:space="preserve" font-family="Helvetica-Light,Helvetica" font-size="69.0" fill="#FEFFFF" transform="matrix(1.00, 0.00, -0.00, -1.00, 1383.9, 490.4)"> </text><text xml:space="preserve" font-family="Helvetica-Light,Helvetica" font-size="69.0" fill="#FEFFFF" transform="matrix(1.00, 0.00, -0.00, -1.00, 851.0, 348.4)">Y</text><text xml:space="preserve" font-family="Helvetica-Light,Helvetica" font-size="69.0" fill="#FEFFFF" transform="matrix(1.00, 0.00, -0.00, -1.00, 886.8, 348.4)">o</text><text xml:space="preserve" font-family="Helvetica-Light,Helvetica" font-size="69.0" fill="#FEFFFF" transform="matrix(1.00, 0.00, -0.00, -1.00, 925.1, 348.4)">u</text><text xml:space="preserve" font-family="Helvetica-Light,Helvetica" font-size="69.0" fill="#FEFFFF" transform="matrix(1.00, 0.00, -0.00, -1.00, 963.5, 348.4)"> </text><text xml:space="preserve" font-family="Helvetica-Light,Helvetica" font-size="69.0" fill="#FEFFFF" transform="matrix(1.00, 0.00, -0.00, -1.00, 982.7, 348.4)">o</text><text xml:space="preserve" font-family="Helvetica-Light,Helvetica" font-size="69.0" fill="#FEFFFF" transform="matrix(1.00, 0.00, -0.00, -1.00, 1021.0, 348.4)">n</text><text xml:space="preserve" font-family="Helvetica-Light,Helvetica" font-size="69.0" fill="#FEFFFF" transform="matrix(1.00, 0.00, -0.00, -1.00, 1059.4, 348.4)">l</text><text xml:space="preserve" font-family="Helvetica-Light,Helvetica" font-size="69.0" fill="#FEFFFF" transform="matrix(1.00, 0.00, -0.00, -1.00, 1074.7, 348.4)">y</text><text xml:space="preserve" font-family="Helvetica-Light,Helvetica" font-size="69.0" fill="#FEFFFF" transform="matrix(1.00, 0.00, -0.00, -1.00, 1109.2, 348.4)"> </text><text xml:space="preserve" font-family="Helvetica-Light,Helvetica" font-size="69.0" fill="#FEFFFF" transform="matrix(1.00, 0.00, -0.00, -1.00, 1128.4, 348.4)">n</text><text xml:space="preserve" font-family="Helvetica-Light,Helvetica" font-size="69.0" fill="#FEFFFF" transform="matrix(1.00, 0.00, -0.00, -1.00, 1166.8, 348.4)">e</text><text xml:space="preserve" font-family="Helvetica-Light,Helvetica" font-size="69.0" fill="#FEFFFF" transform="matrix(1.00, 0.00, -0.00, -1.00, 1205.1, 348.4)">e</text><text xml:space="preserve" font-family="Helvetica-Light,Helvetica" font-size="69.0" fill="#FEFFFF" transform="matrix(1.00, 0.00, -0.00, -1.00, 1243.5, 348.4)">d</text><text xml:space="preserve" font-family="Helvetica-Light,Helvetica" font-size="69.0" fill="#FEFFFF" transform="matrix(1.00, 0.00, -0.00, -1.00, 1285.7, 348.4)"> </text><text xml:space="preserve" font-family="Helvetica-Light,Helvetica" font-size="69.0" fill="#FEFFFF" transform="matrix(1.00, 0.00, -0.00, -1.00, 1304.8, 348.4)">t</text><text xml:space="preserve" font-family="Helvetica-Light,Helvetica" font-size="69.0" fill="#FEFFFF" transform="matrix(1.00, 0.00, -0.00, -1.00, 1324.0, 348.4)">o</text><text xml:space="preserve" font-family="Helvetica-Light,Helvetica" font-size="69.0" fill="#FEFFFF" transform="matrix(1.00, 0.00, -0.00, -1.00, 1362.4, 348.4)"> </text><text xml:space="preserve" font-family="Helvetica-Light,Helvetica" font-size="69.0" fill="#FEFFFF" transform="matrix(1.00, 0.00, -0.00, -1.00, 1381.6, 348.4)">l</text><text xml:space="preserve" font-family="Helvetica-Light,Helvetica" font-size="69.0" fill="#FEFFFF" transform="matrix(1.00, 0.00, -0.00, -1.00, 1396.9, 348.4)">e</text><text xml:space="preserve" font-family="Helvetica-Light,Helvetica" font-size="69.0" fill="#FEFFFF" transform="matrix(1.00, 0.00, -0.00, -1.00, 1435.2, 348.4)">a</text><text xml:space="preserve" font-family="Helvetica-Light,Helvetica" font-size="69.0" fill="#FEFFFF" transform="matrix(1.00, 0.00, -0.00, -1.00, 1473.6, 348.4)">r</text><text xml:space="preserve" font-family="Helvetica-Light,Helvetica" font-size="69.0" fill="#FEFFFF" transform="matrix(1.00, 0.00, -0.00, -1.00, 1497.8, 348.4)">n</text><text xml:space="preserve" font-family="Helvetica-Light,Helvetica" font-size="69.0" fill="#FEFFFF" transform="matrix(1.00, 0.00, -0.00, -1.00, 1536.2, 348.4)"> </text><text xml:space="preserve" font-family="Helvetica-Light,Helvetica" font-size="69.0" fill="#FEFFFF" transform="matrix(1.00, 0.00, -0.00, -1.00, 1555.4, 348.4)">t</text><text xml:space="preserve" font-family="Helvetica-Light,Helvetica" font-size="69.0" fill="#FEFFFF" transform="matrix(1.00, 0.00, -0.00, -1.00, 1574.6, 348.4)">h</text><text xml:space="preserve" font-family="Helvetica-Light,Helvetica" font-size="69.0" fill="#FEFFFF" transform="matrix(1.00, 0.00, -0.00, -1.00, 1612.9, 348.4)">e</text><text xml:space="preserve" font-family="Helvetica-Light,Helvetica" font-size="69.0" fill="#FEFFFF" transform="matrix(1.00, 0.00, -0.00, -1.00, 1651.3, 348.4)"> </text><text xml:space="preserve" font-family="Helvetica-Light,Helvetica" font-size="69.0" fill="#FEFFFF" transform="matrix(1.00, 0.00, -0.00, -1.00, 851.0, 265.4)">s</text><text xml:space="preserve" font-family="Helvetica-Light,Helvetica" font-size="69.0" fill="#FEFFFF" transform="matrix(1.00, 0.00, -0.00, -1.00, 885.5, 265.4)">e</text><text xml:space="preserve" font-family="Helvetica-Light,Helvetica" font-size="69.0" fill="#FEFFFF" transform="matrix(1.00, 0.00, -0.00, -1.00, 923.8, 265.4)">l</text><text xml:space="preserve" font-family="Helvetica-Light,Helvetica" font-size="69.0" fill="#FEFFFF" transform="matrix(1.00, 0.00, -0.00, -1.00, 939.1, 265.4)">e</text><text xml:space="preserve" font-family="Helvetica-Light,Helvetica" font-size="69.0" fill="#FEFFFF" transform="matrix(1.00, 0.00, -0.00, -1.00, 977.5, 265.4)">c</text><text xml:space="preserve" font-family="Helvetica-Light,Helvetica" font-size="69.0" fill="#FEFFFF" transform="matrix(1.00, 0.00, -0.00, -1.00, 1015.9, 265.4)">t</text><text xml:space="preserve" font-family="Helvetica-Light,Helvetica" font-size="69.0" fill="#FEFFFF" transform="matrix(1.00, 0.00, -0.00, -1.00, 1035.0, 265.4)">i</text><text xml:space="preserve" font-family="Helvetica-Light,Helvetica" font-size="69.0" fill="#FEFFFF" transform="matrix(1.00, 0.00, -0.00, -1.00, 1050.4, 265.4)">o</text><text xml:space="preserve" font-family="Helvetica-Light,Helvetica" font-size="69.0" fill="#FEFFFF" transform="matrix(1.00, 0.00, -0.00, -1.00, 1088.7, 265.4)">n</text><text xml:space="preserve" font-family="Helvetica-Light,Helvetica" font-size="69.0" fill="#FEFFFF" transform="matrix(1.00, 0.00, -0.00, -1.00, 1127.1, 265.4)"> </text><text xml:space="preserve" font-family="Helvetica-Light,Helvetica" font-size="69.0" fill="#FEFFFF" transform="matrix(1.00, 0.00, -0.00, -1.00, 1146.3, 265.4)">l</text><text xml:space="preserve" font-family="Helvetica-Light,Helvetica" font-size="69.0" fill="#FEFFFF" transform="matrix(1.00, 0.00, -0.00, -1.00, 1161.6, 265.4)">a</text><text xml:space="preserve" font-family="Helvetica-Light,Helvetica" font-size="69.0" fill="#FEFFFF" transform="matrix(1.00, 0.00, -0.00, -1.00, 1200.0, 265.4)">n</text><text xml:space="preserve" font-family="Helvetica-Light,Helvetica" font-size="69.0" fill="#FEFFFF" transform="matrix(1.00, 0.00, -0.00, -1.00, 1238.3, 265.4)">g</text><text xml:space="preserve" font-family="Helvetica-Light,Helvetica" font-size="69.0" fill="#FEFFFF" transform="matrix(1.00, 0.00, -0.00, -1.00, 1280.5, 265.4)">u</text><text xml:space="preserve" font-family="Helvetica-Light,Helvetica" font-size="69.0" fill="#FEFFFF" transform="matrix(1.00, 0.00, -0.00, -1.00, 1318.8, 265.4)">a</text><text xml:space="preserve" font-family="Helvetica-Light,Helvetica" font-size="69.0" fill="#FEFFFF" transform="matrix(1.00, 0.00, -0.00, -1.00, 1357.2, 265.4)">g</text><text xml:space="preserve" font-family="Helvetica-Light,Helvetica" font-size="69.0" fill="#FEFFFF" transform="matrix(1.00, 0.00, -0.00, -1.00, 1399.4, 265.4)">e</text><text xml:space="preserve" font-family="Helvetica-Light,Helvetica" font-size="69.0" fill="#FEFFFF" transform="matrix(1.00, 0.00, -0.00, -1.00, 1437.7, 265.4)"> </text><text xml:space="preserve" font-family="Helvetica-Light,Helvetica" font-size="69.0" fill="#FEFFFF" transform="matrix(1.00, 0.00, -0.00, -1.00, 1456.9, 265.4)">o</text><text xml:space="preserve" font-family="Helvetica-Light,Helvetica" font-size="69.0" fill="#FEFFFF" transform="matrix(1.00, 0.00, -0.00, -1.00, 1495.3, 265.4)">n</text><text xml:space="preserve" font-family="Helvetica-Light,Helvetica" font-size="69.0" fill="#FEFFFF" transform="matrix(1.00, 0.00, -0.00, -1.00, 1533.6, 265.4)">c</text><text xml:space="preserve" font-family="Helvetica-Light,Helvetica" font-size="69.0" fill="#FEFFFF" transform="matrix(1.00, 0.00, -0.00, -1.00, 1572.0, 265.4)">e</text><text xml:space="preserve" font-family="Helvetica-Light,Helvetica" font-size="69.0" fill="#FEFFFF" transform="matrix(1.00, 0.00, -0.00, -1.00, 1610.4, 265.4)"> </text><text xml:space="preserve" font-family="Helvetica-Light,Helvetica" font-size="69.0" fill="#FEFFFF" transform="matrix(1.00, 0.00, -0.00, -1.00, 1629.6, 265.4)">t</text><text xml:space="preserve" font-family="Helvetica-Light,Helvetica" font-size="69.0" fill="#FEFFFF" transform="matrix(1.00, 0.00, -0.00, -1.00, 1648.7, 265.4)">o</text><text xml:space="preserve" font-family="Helvetica-Light,Helvetica" font-size="69.0" fill="#FEFFFF" transform="matrix(1.00, 0.00, -0.00, -1.00, 1687.1, 265.4)"> </text><text xml:space="preserve" font-family="Helvetica-Light,Helvetica" font-size="69.0" fill="#FEFFFF" transform="matrix(1.00, 0.00, -0.00, -1.00, 851.0, 182.4)">u</text><text xml:space="preserve" font-family="Helvetica-Light,Helvetica" font-size="69.0" fill="#FEFFFF" transform="matrix(1.00, 0.00, -0.00, -1.00, 889.3, 182.4)">s</text><text xml:space="preserve" font-family="Helvetica-Light,Helvetica" font-size="69.0" fill="#FEFFFF" transform="matrix(1.00, 0.00, -0.00, -1.00, 923.8, 182.4)">e</text><text xml:space="preserve" font-family="Helvetica-Light,Helvetica" font-size="69.0" fill="#FEFFFF" transform="matrix(1.00, 0.00, -0.00, -1.00, 962.2, 182.4)"> </text><text xml:space="preserve" font-family="Helvetica-Light,Helvetica" font-size="69.0" fill="#FEFFFF" transform="matrix(1.00, 0.00, -0.00, -1.00, 981.4, 182.4)">b</text><text xml:space="preserve" font-family="Helvetica-Light,Helvetica" font-size="69.0" fill="#FEFFFF" transform="matrix(1.00, 0.00, -0.00, -1.00, 1023.5, 182.4)">o</text><text xml:space="preserve" font-family="Helvetica-Light,Helvetica" font-size="69.0" fill="#FEFFFF" transform="matrix(1.00, 0.00, -0.00, -1.00, 1061.9, 182.4)">t</text><text xml:space="preserve" font-family="Helvetica-Light,Helvetica" font-size="69.0" fill="#FEFFFF" transform="matrix(1.00, 0.00, -0.00, -1.00, 1081.1, 182.4)">h</text><text xml:space="preserve" font-family="Helvetica-Light,Helvetica" font-size="69.0" fill="#FEFFFF" transform="matrix(1.00, 0.00, -0.00, -1.00, 1119.4, 182.4)"> </text><text xml:space="preserve" font-family="Helvetica-Light,Helvetica" font-size="69.0" fill="#FEFFFF" transform="matrix(1.00, 0.00, -0.00, -1.00, 1138.6, 182.4)">C</text><text xml:space="preserve" font-family="Helvetica-Light,Helvetica" font-size="69.0" fill="#FEFFFF" transform="matrix(1.00, 0.00, -0.00, -1.00, 1188.4, 182.4)">S</text><text xml:space="preserve" font-family="Helvetica-Light,Helvetica" font-size="69.0" fill="#FEFFFF" transform="matrix(1.00, 0.00, -0.00, -1.00, 1230.6, 182.4)">S</text><text xml:space="preserve" font-family="Helvetica-Light,Helvetica" font-size="69.0" fill="#FEFFFF" transform="matrix(1.00, 0.00, -0.00, -1.00, 1272.8, 182.4)"> </text><text xml:space="preserve" font-family="Helvetica-Light,Helvetica" font-size="69.0" fill="#FEFFFF" transform="matrix(1.00, 0.00, -0.00, -1.00, 1291.9, 182.4)">a</text><text xml:space="preserve" font-family="Helvetica-Light,Helvetica" font-size="69.0" fill="#FEFFFF" transform="matrix(1.00, 0.00, -0.00, -1.00, 1330.3, 182.4)">n</text><text xml:space="preserve" font-family="Helvetica-Light,Helvetica" font-size="69.0" fill="#FEFFFF" transform="matrix(1.00, 0.00, -0.00, -1.00, 1368.7, 182.4)">d</text><text xml:space="preserve" font-family="Helvetica-Light,Helvetica" font-size="69.0" fill="#FEFFFF" transform="matrix(1.00, 0.00, -0.00, -1.00, 1410.8, 182.4)"> </text><text xml:space="preserve" font-family="Helvetica-Light,Helvetica" font-size="69.0" fill="#FEFFFF" transform="matrix(1.00, 0.00, -0.00, -1.00, 1430.0, 182.4)">j</text><text xml:space="preserve" font-family="Helvetica-Light,Helvetica" font-size="69.0" fill="#FEFFFF" transform="matrix(1.00, 0.00, -0.00, -1.00, 1445.3, 182.4)">Q</text><text xml:space="preserve" font-family="Helvetica-Light,Helvetica" font-size="69.0" fill="#FEFFFF" transform="matrix(1.00, 0.00, -0.00, -1.00, 1499.0, 182.4)">u</text><text xml:space="preserve" font-family="Helvetica-Light,Helvetica" font-size="69.0" fill="#FEFFFF" transform="matrix(1.00, 0.00, -0.00, -1.00, 1537.4, 182.4)">e</text><text xml:space="preserve" font-family="Helvetica-Light,Helvetica" font-size="69.0" fill="#FEFFFF" transform="matrix(1.00, 0.00, -0.00, -1.00, 1575.7, 182.4)">r</text><text xml:space="preserve" font-family="Helvetica-Light,Helvetica" font-size="69.0" fill="#FEFFFF" transform="matrix(1.00, 0.00, -0.00, -1.00, 1600.0, 182.4)">y</text><text xml:space="preserve" font-family="Helvetica-Light,Helvetica" font-size="69.0" fill="#FEFFFF" transform="matrix(1.00, 0.00, -0.00, -1.00, 1628.1, 182.4)">.</text></g></svg>